<?xml version="1.0" encoding="utf-8"?>
<!-- Generator: Adobe Illustrator 28.4.1, SVG Export Plug-In . SVG Version: 6.00 Build 0)  -->
<svg version="1.1" id="Layer_1" xmlns="http://www.w3.org/2000/svg" xmlns:xlink="http://www.w3.org/1999/xlink" x="0px" y="0px"
	 viewBox="0 0 595.28 841.89" style="enable-background:new 0 0 595.28 841.89;" xml:space="preserve">
<style type="text/css">
	.st0{fill:#FFFFFF;}
</style>
<g>
	<g>
		<path class="st0" d="M358.88,482.77c-40.95,0-81.9,0-122.88,0c0-40.94,0-81.89,0-122.88c40.94,0,81.91,0,122.88,0
			C358.88,400.82,358.88,441.79,358.88,482.77z M297.3,361.54c-15.97,0-31.94,0-47.9,0c-7.23,0-11.97,4.76-11.97,12.01
			c0,31.9,0,63.81,0,95.71c0,7.34,4.71,12.06,12.04,12.06c31.9,0,63.79,0,95.69,0c7.33,0,12.03-4.72,12.03-12.07
			c0-31.86,0-63.73,0-95.59c0-7.42-4.69-12.12-12.1-12.12C329.16,361.54,313.23,361.54,297.3,361.54z"/>
		<path d="M297.3,361.54c15.93,0,31.86,0,47.78,0c7.41,0,12.1,4.7,12.1,12.12c0,31.86,0,63.73,0,95.59c0,7.36-4.7,12.07-12.03,12.07
			c-31.9,0-63.79,0-95.69,0c-7.33,0-12.04-4.72-12.04-12.06c0-31.9,0-63.81,0-95.71c0-7.26,4.74-12.01,11.97-12.01
			C265.37,361.54,281.33,361.54,297.3,361.54z M349.89,377.16c-0.49-0.02-0.88-0.06-1.27-0.06c-2.44-0.01-4.87,0.01-7.31-0.01
			c-4.12-0.03-8.17,0.21-12.21,1.24c-4.64,1.18-9.03,2.86-13.14,5.29c-7.33,4.32-13.18,10.11-17.43,17.5
			c-2.72,4.73-5.44,9.47-8.16,14.2c-3.86,6.69-7.66,13.42-11.63,20.05c-0.9,1.51-0.64,2.6,0.12,3.91c3.04,5.19,6.04,10.4,9.05,15.61
			c2.69,4.65,5.35,9.32,8.04,13.97c0.55,0.94,0.9,0.95,1.4,0.07c3.23-5.59,6.48-11.17,9.69-16.76c5.89-10.25,11.77-20.5,17.65-30.75
			c3.65-6.36,7.27-12.73,10.93-19.08c4.68-8.11,9.38-16.2,14.07-24.3C349.82,377.83,349.81,377.54,349.89,377.16z M243.32,377.1
			c0.67,1.29,1.15,2.32,1.71,3.29c4.63,8.04,9.28,16.07,13.91,24.11c4.99,8.66,9.96,17.33,14.94,25.99c0.62,1.07,1.01,1.11,1.65,0
			c2.43-4.15,4.89-8.29,7.18-12.51c1.48-2.72,3.1-5.46,3.94-8.39c2.09-7.25,1.12-14.28-2.99-20.65
			c-4.81-7.46-11.62-11.67-20.65-11.82c-5.43-0.09-10.85-0.02-16.28-0.02C245.74,377.1,244.75,377.1,243.32,377.1z"/>
		<path class="st0" d="M349.89,377.16c-0.08,0.38-0.07,0.68-0.19,0.89c-4.68,8.1-9.39,16.19-14.07,24.3
			c-3.66,6.35-7.28,12.72-10.93,19.08c-5.88,10.25-11.76,20.51-17.65,30.75c-3.22,5.6-6.46,11.18-9.69,16.76
			c-0.5,0.87-0.86,0.87-1.4-0.07c-2.69-4.65-5.36-9.32-8.04-13.97c-3.01-5.21-6.01-10.42-9.05-15.61c-0.77-1.31-1.03-2.4-0.12-3.91
			c3.97-6.63,7.77-13.36,11.63-20.05c2.73-4.73,5.44-9.46,8.16-14.2c4.25-7.39,10.1-13.18,17.43-17.5c4.11-2.43,8.5-4.1,13.14-5.29
			c4.04-1.03,8.09-1.28,12.21-1.24c2.44,0.02,4.87,0,7.31,0.01C349.01,377.1,349.4,377.13,349.89,377.16z"/>
		<path class="st0" d="M243.32,377.1c1.44,0,2.43,0,3.42,0c5.43,0,10.85-0.07,16.28,0.02c9.03,0.15,15.84,4.36,20.65,11.82
			c4.11,6.38,5.08,13.41,2.99,20.65c-0.85,2.93-2.47,5.68-3.94,8.39c-2.3,4.22-4.75,8.36-7.18,12.51c-0.65,1.11-1.04,1.07-1.65,0
			c-4.98-8.66-9.95-17.33-14.94-25.99c-4.63-8.04-9.28-16.07-13.91-24.11C244.46,379.41,243.98,378.39,243.32,377.1z"/>
	</g>
</g>
</svg>
